<?xml version="1.0" encoding="UTF-8"?>
<svg width="410px" height="65px" viewBox="0 0 410 65" version="1.1" xmlns="http://www.w3.org/2000/svg" xmlns:xlink="http://www.w3.org/1999/xlink">
    <!-- Generator: Sketch 50.2 (55047) - http://www.bohemiancoding.com/sketch -->
    <title>logo</title>
    <desc>Created with Sketch.</desc>
    <defs></defs>
    <g id="Page-1" stroke="none" stroke-width="1" fill="none" fill-rule="evenodd">
        <g id="logo" fill="#FFFFFF" fill-rule="nonzero">
            <path d="M37.375,49.157 L0.655,49.157 L0.655,48.557 C1.654,48.397 2.584,48.137 3.445,47.777 C4.305,47.416 5.014,46.917 5.575,46.277 C5.774,46.037 5.935,45.687 6.055,45.227 C6.175,44.768 6.285,44.237 6.385,43.637 C6.484,43.037 6.555,42.407 6.595,41.747 C6.634,41.087 6.655,40.437 6.655,39.797 C6.655,39.237 6.664,38.477 6.685,37.517 C6.705,36.557 6.724,35.507 6.745,34.367 C6.765,33.227 6.775,32.057 6.775,30.857 C6.775,29.617 6.775,28.457 6.775,27.377 L6.775,15.677 C6.775,14.957 6.765,14.217 6.745,13.457 C6.724,12.697 6.685,11.978 6.625,11.297 C6.565,10.617 6.464,10.007 6.325,9.467 C6.184,8.927 5.995,8.537 5.755,8.297 C5.155,7.657 4.515,7.247 3.835,7.067 C3.154,6.887 2.275,6.717 1.195,6.557 L1.195,5.957 L34.315,5.957 L38.395,15.857 L37.795,16.157 C34.555,12.117 31.515,9.397 28.675,7.997 C27.994,7.677 26.734,7.397 24.895,7.157 C23.055,6.916 20.815,6.797 18.175,6.797 C17.335,6.797 16.465,6.827 15.565,6.887 C14.665,6.947 14.014,7.017 13.615,7.097 C13.534,7.737 13.465,9.057 13.405,11.057 C13.345,13.057 13.315,15.377 13.315,18.017 C13.315,19.538 13.315,20.817 13.315,21.857 C13.315,22.897 13.324,23.747 13.345,24.407 C13.365,25.067 13.375,25.577 13.375,25.936 C13.375,26.257 13.375,26.477 13.375,26.597 C13.575,26.597 13.975,26.597 14.575,26.597 C15.175,26.597 15.865,26.577 16.645,26.537 C17.425,26.498 18.205,26.447 18.985,26.387 C19.765,26.327 20.415,26.237 20.935,26.117 C22.135,25.837 23.134,25.457 23.935,24.977 C24.734,24.497 25.384,23.917 25.885,23.237 C26.384,22.557 26.785,21.767 27.085,20.867 C27.385,19.967 27.655,18.957 27.895,17.837 L28.615,17.837 L28.615,36.737 L27.895,36.737 C27.574,35.457 27.085,34.137 26.425,32.777 C25.765,31.417 25.075,30.397 24.355,29.717 C23.714,29.157 22.945,28.697 22.045,28.337 C21.145,27.977 20.095,27.757 18.895,27.677 C18.295,27.637 17.794,27.607 17.395,27.587 C16.995,27.567 16.594,27.557 16.195,27.557 C15.835,27.557 15.435,27.557 14.995,27.557 C14.595,27.557 14.074,27.557 13.435,27.557 C13.354,28.117 13.315,28.936 13.315,30.017 C13.315,31.097 13.315,32.217 13.315,33.377 C13.315,33.897 13.315,34.497 13.315,35.177 C13.315,35.857 13.315,36.537 13.315,37.217 C13.315,37.857 13.324,38.467 13.345,39.047 C13.365,39.627 13.375,40.117 13.375,40.517 C13.414,41.797 13.484,43.007 13.585,44.147 C13.684,45.287 13.915,46.137 14.275,46.697 C14.635,47.257 15.495,47.657 16.855,47.897 C18.214,48.137 19.694,48.257 21.295,48.257 C21.975,48.257 22.845,48.237 23.905,48.197 C24.964,48.157 26.074,48.057 27.235,47.897 C28.515,47.737 29.695,47.427 30.775,46.967 C31.855,46.507 32.895,45.857 33.895,45.017 C34.894,44.177 35.865,43.147 36.805,41.927 C37.744,40.707 38.714,39.237 39.715,37.517 L40.375,37.697 L37.375,49.157" id="Fill-1"></path>
            <path d="M65.695,43.967 C64.975,45.027 64.095,45.967 63.055,46.787 C62.014,47.607 60.844,48.237 59.545,48.677 C58.245,49.117 56.834,49.337 55.315,49.337 C53.395,49.337 51.615,48.967 49.975,48.227 C48.334,47.487 46.935,46.447 45.775,45.107 C44.614,43.767 43.705,42.197 43.045,40.397 C42.385,38.597 42.055,36.677 42.055,34.637 C42.055,32.717 42.395,30.887 43.075,29.147 C43.755,27.407 44.695,25.877 45.895,24.557 C47.095,23.237 48.525,22.177 50.185,21.377 C51.844,20.577 53.655,20.177 55.615,20.177 C56.935,20.177 58.234,20.337 59.515,20.657 C60.794,20.978 61.935,21.436 62.935,22.037 C63.935,22.637 64.744,23.377 65.365,24.257 C65.985,25.137 66.295,26.157 66.295,27.317 C66.295,28.157 65.985,28.887 65.365,29.507 C64.744,30.127 64.015,30.436 63.175,30.436 C62.494,30.436 61.885,30.237 61.345,29.837 C60.805,29.437 60.455,28.936 60.295,28.337 C60.495,27.777 60.595,27.097 60.595,26.297 C60.595,24.817 60.205,23.587 59.425,22.607 C58.645,21.627 57.415,21.137 55.735,21.137 C54.495,21.137 53.354,21.457 52.315,22.097 C51.274,22.737 50.375,23.597 49.615,24.677 C48.854,25.757 48.255,27.017 47.815,28.457 C47.375,29.897 47.155,31.437 47.155,33.077 C47.155,34.877 47.395,36.527 47.875,38.027 C48.355,39.527 49.035,40.807 49.915,41.867 C50.794,42.927 51.865,43.748 53.125,44.327 C54.385,44.907 55.795,45.197 57.355,45.197 C59.834,45.197 61.795,44.787 63.235,43.967 C64.675,43.147 65.875,41.937 66.835,40.337 L67.315,40.577 C66.955,41.777 66.415,42.907 65.695,43.967" id="Fill-2"></path>
            <path d="M90.265,30.017 C89.964,28.457 89.474,27.017 88.794,25.697 C88.114,24.377 87.214,23.288 86.094,22.427 C84.974,21.567 83.594,21.137 81.955,21.137 C80.634,21.137 79.454,21.537 78.415,22.337 C77.374,23.137 76.484,24.187 75.745,25.487 C75.004,26.787 74.444,28.247 74.064,29.867 C73.684,31.487 73.495,33.137 73.495,34.817 C73.495,36.657 73.654,38.397 73.975,40.037 C74.294,41.677 74.814,43.127 75.534,44.387 C76.254,45.647 77.174,46.647 78.294,47.387 C79.414,48.127 80.754,48.497 82.314,48.497 C83.875,48.497 85.184,48.027 86.245,47.087 C87.304,46.147 88.165,44.967 88.824,43.547 C89.484,42.127 89.964,40.597 90.265,38.957 C90.564,37.317 90.714,35.797 90.714,34.397 C90.714,33.038 90.564,31.577 90.265,30.017 Z M95.154,40.247 C94.394,42.067 93.374,43.657 92.094,45.017 C90.814,46.377 89.324,47.437 87.625,48.197 C85.924,48.957 84.134,49.337 82.254,49.337 C80.694,49.337 79.074,49.057 77.395,48.497 C75.714,47.937 74.164,47.047 72.745,45.827 C71.324,44.607 70.165,43.047 69.265,41.147 C68.364,39.248 67.915,37.017 67.915,34.457 C67.915,32.617 68.264,30.837 68.964,29.117 C69.664,27.397 70.645,25.877 71.904,24.557 C73.165,23.237 74.684,22.177 76.464,21.377 C78.244,20.577 80.214,20.177 82.375,20.177 C83.974,20.177 85.594,20.477 87.234,21.077 C88.874,21.677 90.364,22.567 91.705,23.747 C93.044,24.927 94.144,26.407 95.004,28.186 C95.864,29.967 96.294,32.057 96.294,34.457 C96.294,36.497 95.914,38.427 95.154,40.247 Z" id="Fill-3"></path>
            <path d="M97.854,49.157 L97.854,48.497 C99.693,48.377 100.914,48.187 101.514,47.927 C102.114,47.667 102.414,47.217 102.414,46.577 L102.414,12.077 C102.414,11.757 102.384,11.517 102.324,11.357 C102.264,11.197 102.093,11.018 101.813,10.817 C101.454,10.617 100.914,10.307 100.193,9.887 C99.474,9.467 98.874,9.157 98.394,8.957 L98.394,8.597 L106.974,5.777 L107.394,5.777 L107.394,46.877 C107.394,47.277 107.483,47.577 107.664,47.777 C107.844,47.978 108.114,48.117 108.474,48.197 C108.833,48.277 109.293,48.327 109.854,48.347 C110.413,48.367 111.073,48.417 111.833,48.497 L111.833,49.157 L97.854,49.157" id="Fill-4"></path>
            <path d="M121.883,13.007 C121.262,13.627 120.493,13.936 119.573,13.936 C118.692,13.936 117.932,13.617 117.293,12.977 C116.652,12.337 116.333,11.577 116.333,10.697 C116.333,9.777 116.642,9.017 117.263,8.416 C117.882,7.817 118.652,7.517 119.573,7.517 C120.493,7.517 121.262,7.817 121.883,8.416 C122.502,9.017 122.813,9.777 122.813,10.697 C122.813,11.617 122.502,12.387 121.883,13.007 Z M113.273,49.157 L113.273,48.557 C113.753,48.518 114.233,48.467 114.713,48.407 C115.193,48.347 115.622,48.248 116.003,48.107 C116.382,47.967 116.702,47.777 116.963,47.537 C117.223,47.297 117.353,46.997 117.353,46.637 L117.353,26.057 C117.353,25.737 117.323,25.457 117.263,25.217 C117.203,24.977 117.032,24.757 116.753,24.557 C116.393,24.317 115.962,24.077 115.463,23.837 C114.962,23.597 114.433,23.377 113.873,23.177 L113.873,22.817 L121.973,20.177 L122.333,20.177 L122.333,46.997 C122.413,47.397 122.582,47.686 122.843,47.867 C123.103,48.047 123.413,48.177 123.773,48.257 C124.133,48.337 124.523,48.387 124.943,48.407 C125.363,48.427 125.773,48.477 126.173,48.557 L126.173,49.157 L113.273,49.157 Z" id="Fill-5"></path>
            <path d="M148.012,25.877 C147.732,24.957 147.322,24.147 146.782,23.447 C146.242,22.748 145.561,22.186 144.742,21.767 C143.921,21.347 142.972,21.137 141.892,21.137 C140.892,21.137 139.992,21.367 139.192,21.827 C138.391,22.287 137.722,22.907 137.182,23.686 C136.642,24.467 136.232,25.357 135.952,26.357 C135.671,27.357 135.532,28.377 135.532,29.416 C135.532,31.817 136.141,33.747 137.362,35.207 C138.582,36.667 140.072,37.397 141.833,37.397 C142.913,37.397 143.862,37.157 144.682,36.677 C145.501,36.197 146.192,35.557 146.752,34.757 C147.312,33.957 147.732,33.047 148.012,32.027 C148.292,31.007 148.432,29.937 148.432,28.817 C148.432,27.777 148.292,26.797 148.012,25.877 Z M152.992,51.916 C152.512,51.077 151.932,50.497 151.252,50.177 C150.372,49.736 149.272,49.427 147.952,49.247 C146.632,49.067 144.811,48.977 142.492,48.977 C141.652,48.977 140.792,49.017 139.913,49.097 C139.032,49.176 138.312,49.256 137.752,49.337 C135.872,49.817 134.572,50.576 133.852,51.617 C133.132,52.656 132.772,53.796 132.772,55.037 C132.772,56.316 133.122,57.436 133.822,58.397 C134.522,59.357 135.391,60.166 136.432,60.827 C137.472,61.487 138.582,61.976 139.762,62.297 C140.942,62.616 142.032,62.777 143.032,62.777 C144.232,62.777 145.261,62.717 146.123,62.597 C146.982,62.477 147.751,62.297 148.432,62.057 C149.832,61.496 151.062,60.596 152.123,59.357 C153.181,58.116 153.712,56.636 153.712,54.916 C153.712,53.756 153.472,52.757 152.992,51.916 Z M158.902,25.067 C158.482,25.527 157.972,25.757 157.373,25.757 C157.132,25.757 156.772,25.657 156.292,25.457 C155.812,25.257 155.282,25.017 154.702,24.737 C154.122,24.457 153.532,24.147 152.932,23.807 C152.333,23.467 151.792,23.157 151.312,22.877 L151.072,23.117 C151.672,24.038 152.182,24.897 152.602,25.697 C153.022,26.498 153.232,27.537 153.232,28.817 C153.232,31.977 152.131,34.347 149.932,35.927 C147.732,37.507 144.692,38.297 140.812,38.297 C140.251,38.297 139.681,38.257 139.102,38.177 C138.522,38.097 137.832,38.057 137.032,38.057 C135.751,38.137 134.732,38.437 133.972,38.957 C133.211,39.477 132.833,40.137 132.833,40.936 C132.833,41.577 133.032,42.107 133.432,42.527 C133.832,42.947 134.333,43.277 134.932,43.517 C135.532,43.757 136.192,43.917 136.913,43.997 C137.632,44.077 138.332,44.117 139.012,44.117 L148.612,44.117 C150.012,44.117 151.272,44.337 152.392,44.777 C153.511,45.217 154.471,45.817 155.272,46.577 C156.072,47.337 156.682,48.207 157.102,49.186 C157.522,50.166 157.732,51.257 157.732,52.457 C157.732,54.017 157.342,55.506 156.562,56.927 C155.782,58.346 154.692,59.597 153.292,60.677 C151.891,61.757 150.242,62.606 148.342,63.227 C146.442,63.846 144.352,64.157 142.072,64.157 C137.711,64.157 134.322,63.506 131.902,62.207 C129.482,60.906 128.272,59.117 128.272,56.837 C128.272,55.997 128.501,55.236 128.962,54.557 C129.421,53.876 130.001,53.227 130.702,52.607 C131.402,51.986 132.181,51.407 133.042,50.867 C133.902,50.327 134.752,49.796 135.592,49.277 L135.592,49.157 C133.552,48.916 131.982,48.337 130.882,47.416 C129.782,46.497 129.232,45.277 129.232,43.757 C129.232,42.998 129.413,42.277 129.772,41.597 C130.132,40.917 130.631,40.297 131.272,39.737 C131.912,39.177 132.662,38.707 133.522,38.327 C134.381,37.947 135.312,37.697 136.312,37.577 L136.312,37.397 C134.551,36.717 133.182,35.717 132.202,34.397 C131.221,33.077 130.732,31.397 130.732,29.357 C130.732,28.077 131.022,26.877 131.602,25.757 C132.181,24.637 132.992,23.667 134.032,22.847 C135.072,22.027 136.302,21.377 137.722,20.897 C139.141,20.416 140.692,20.177 142.373,20.177 C143.892,20.177 145.242,20.317 146.422,20.597 C147.601,20.877 148.832,21.357 150.112,22.037 C150.592,22.197 151.001,22.297 151.342,22.337 C151.681,22.377 152.092,22.397 152.572,22.397 C153.052,22.397 153.482,22.327 153.862,22.186 C154.242,22.047 154.591,21.887 154.913,21.707 C155.232,21.527 155.572,21.367 155.932,21.227 C156.292,21.087 156.712,21.017 157.192,21.017 C157.872,21.017 158.431,21.257 158.873,21.737 C159.312,22.217 159.532,22.797 159.532,23.477 C159.532,24.077 159.322,24.607 158.902,25.067 Z" id="Fill-6"></path>
            <path d="M176.962,22.787 C175.942,21.728 174.572,21.197 172.852,21.197 C171.732,21.197 170.722,21.527 169.822,22.186 C168.922,22.847 168.142,23.617 167.482,24.497 C166.822,25.377 166.312,26.267 165.952,27.166 C165.592,28.067 165.372,28.757 165.292,29.237 C166.211,29.237 167.032,29.237 167.752,29.237 C168.472,29.237 169.182,29.228 169.882,29.207 C170.582,29.187 171.312,29.167 172.072,29.147 C172.832,29.127 173.671,29.117 174.592,29.117 C175.192,29.117 175.751,29.097 176.272,29.057 C176.792,29.018 177.251,28.917 177.652,28.757 C177.931,28.437 178.141,28.137 178.282,27.857 C178.421,27.577 178.492,27.157 178.492,26.597 C178.492,25.117 177.982,23.847 176.962,22.787 Z M183.833,43.007 C183.272,44.107 182.512,45.117 181.552,46.037 C180.592,46.957 179.442,47.717 178.102,48.317 C176.761,48.916 175.272,49.217 173.632,49.217 C171.592,49.217 169.732,48.837 168.052,48.077 C166.373,47.317 164.942,46.247 163.762,44.867 C162.582,43.487 161.671,41.867 161.032,40.007 C160.392,38.147 160.072,36.177 160.072,34.097 C160.072,32.416 160.373,30.747 160.972,29.087 C161.572,27.427 162.421,25.936 163.522,24.617 C164.622,23.297 165.961,22.227 167.542,21.407 C169.122,20.587 170.873,20.177 172.792,20.177 C174.352,20.177 175.822,20.377 177.202,20.777 C178.583,21.177 179.782,21.788 180.802,22.607 C181.822,23.427 182.652,24.457 183.292,25.697 C183.931,26.937 184.312,28.397 184.432,30.077 L165.172,30.077 C165.172,30.397 165.152,30.767 165.112,31.186 C165.072,31.607 165.052,32.037 165.052,32.477 C165.052,34.157 165.292,35.768 165.772,37.307 C166.252,38.847 166.952,40.207 167.873,41.387 C168.792,42.567 169.952,43.497 171.352,44.177 C172.751,44.857 174.372,45.197 176.212,45.197 C178.211,45.197 179.962,44.686 181.462,43.666 C182.962,42.647 183.952,41.397 184.432,39.916 L184.913,40.037 C184.751,40.917 184.392,41.907 183.833,43.007 Z" id="Fill-7"></path>
            <path d="M203.512,49.157 L203.512,48.497 C204.591,48.417 205.451,48.287 206.091,48.107 C206.73,47.927 207.051,47.517 207.051,46.877 L207.051,31.757 C207.051,29.437 206.61,27.567 205.731,26.147 C204.851,24.728 203.372,24.017 201.292,24.017 C199.972,24.017 198.872,24.297 197.992,24.857 C197.112,25.417 196.131,26.237 195.051,27.317 L195.051,46.997 C195.131,47.397 195.271,47.686 195.472,47.867 C195.671,48.047 195.912,48.177 196.192,48.257 C196.471,48.337 196.792,48.387 197.152,48.407 C197.512,48.427 197.891,48.477 198.292,48.557 L198.292,49.157 L186.711,49.157 L186.711,48.557 C187.631,48.477 188.421,48.297 189.082,48.017 C189.742,47.737 190.072,47.277 190.072,46.637 L190.072,25.997 C190.072,25.677 190.042,25.437 189.982,25.277 C189.921,25.117 189.751,24.937 189.472,24.737 C189.112,24.537 188.692,24.307 188.211,24.047 C187.732,23.787 187.251,23.557 186.772,23.357 L186.772,22.997 L194.631,20.177 L194.992,20.177 L194.992,26.657 L195.112,26.717 C195.55,26.037 196.098,25.307 196.756,24.527 C197.414,23.747 198.161,23.037 198.998,22.397 C199.834,21.757 200.751,21.227 201.749,20.807 C202.744,20.387 203.781,20.177 204.857,20.177 C207.168,20.177 208.942,21.038 210.178,22.757 C211.413,24.477 212.031,26.697 212.031,29.416 L212.031,47.057 C212.031,47.337 212.16,47.577 212.421,47.777 C212.681,47.978 212.991,48.127 213.352,48.227 C213.711,48.327 214.102,48.407 214.521,48.467 C214.941,48.527 215.331,48.577 215.691,48.617 L215.691,49.157 L203.512,49.157" id="Fill-8"></path>
            <path d="M235.431,24.436 L226.311,24.436 L226.311,40.217 C226.311,42.257 226.751,43.737 227.631,44.657 C228.511,45.577 229.65,46.037 231.051,46.037 C232.211,46.037 233.171,45.847 233.931,45.467 C234.69,45.087 235.351,44.498 235.911,43.697 L236.271,43.877 C236.031,44.477 235.701,45.107 235.281,45.767 C234.861,46.427 234.301,47.027 233.601,47.567 C232.9,48.107 232.08,48.527 231.141,48.827 C230.201,49.127 229.091,49.277 227.811,49.277 C226.971,49.277 226.165,49.147 225.394,48.887 C224.622,48.627 223.939,48.248 223.347,47.747 C222.754,47.247 222.27,46.687 221.895,46.067 C221.519,45.447 221.331,44.817 221.331,44.177 C221.331,40.417 221.351,36.847 221.391,33.467 C221.431,30.087 221.451,27.077 221.451,24.436 L217.071,24.436 L217.071,23.777 L225.717,15.557 L226.191,15.557 L226.191,20.777 L237.291,20.777 L235.431,24.436" id="Fill-9"></path>
            <path d="M265.641,11.957 C264.46,10.157 262.91,8.797 260.99,7.877 C260.03,7.437 259.011,7.137 257.931,6.977 C256.851,6.817 255.73,6.737 254.57,6.737 C253.73,6.737 253.08,6.767 252.62,6.827 C252.16,6.887 251.79,6.937 251.511,6.977 C251.47,7.217 251.421,7.427 251.36,7.607 C251.301,7.787 251.25,8.018 251.211,8.297 C251.17,8.577 251.13,8.967 251.091,9.467 C251.05,9.967 251.01,10.677 250.971,11.597 C250.93,12.998 250.9,14.697 250.881,16.697 C250.859,18.697 250.851,20.657 250.851,22.577 C250.851,24.497 250.851,26.177 250.851,27.617 C250.851,29.057 250.851,29.937 250.851,30.257 C252.49,30.257 254.03,30.207 255.471,30.107 C256.91,30.007 258.25,29.737 259.49,29.297 C262.05,28.417 264.01,26.967 265.37,24.947 C266.729,22.927 267.41,20.657 267.41,18.137 C267.41,15.817 266.82,13.757 265.641,11.957 Z M273.171,22.457 C272.69,23.657 272.061,24.717 271.28,25.637 C270.5,26.557 269.59,27.347 268.551,28.007 C267.51,28.666 266.45,29.197 265.37,29.597 C264.25,29.997 263.05,30.297 261.771,30.497 C260.49,30.697 259.2,30.847 257.9,30.947 C256.601,31.047 255.33,31.097 254.091,31.097 C252.891,31.097 251.811,31.097 250.851,31.097 C250.851,32.377 250.851,33.477 250.851,34.397 C250.851,35.277 250.851,36.057 250.851,36.737 C250.851,37.417 250.859,38.047 250.881,38.627 C250.9,39.207 250.91,39.837 250.91,40.517 C250.95,41.797 250.99,42.897 251.03,43.817 C251.07,44.737 251.29,45.497 251.69,46.097 C252.01,46.617 252.63,47.137 253.551,47.657 C254.47,48.177 255.75,48.477 257.391,48.557 L257.391,49.157 L238.19,49.157 L238.19,48.557 C239.189,48.397 240.149,48.157 241.07,47.837 C241.99,47.517 242.71,47.037 243.23,46.397 C243.43,46.157 243.591,45.797 243.711,45.317 C243.83,44.837 243.921,44.297 243.98,43.697 C244.04,43.097 244.09,42.457 244.131,41.777 C244.17,41.097 244.19,40.437 244.19,39.797 C244.19,39.237 244.2,38.477 244.221,37.517 C244.24,36.557 244.26,35.507 244.28,34.367 C244.3,33.227 244.311,32.057 244.311,30.857 C244.311,29.617 244.311,28.457 244.311,27.377 L244.311,15.677 C244.311,14.957 244.3,14.228 244.28,13.487 C244.26,12.747 244.221,12.047 244.16,11.387 C244.101,10.727 244,10.127 243.86,9.587 C243.72,9.047 243.53,8.657 243.29,8.416 C242.69,7.777 241.92,7.347 240.98,7.127 C240.04,6.907 239.03,6.717 237.95,6.557 L237.95,5.957 C238.19,5.957 238.671,5.957 239.391,5.957 C240.149,5.957 241.04,5.947 242.061,5.927 C243.08,5.907 244.19,5.897 245.391,5.897 C246.591,5.897 247.78,5.887 248.961,5.867 C250.14,5.847 251.25,5.837 252.29,5.837 C253.37,5.837 254.271,5.837 254.99,5.837 C257.631,5.837 259.971,5.967 262.011,6.227 C264.051,6.487 265.971,7.117 267.771,8.117 C269.53,9.077 270.99,10.437 272.15,12.197 C273.311,13.957 273.891,16.037 273.891,18.436 C273.891,19.917 273.65,21.257 273.171,22.457 Z" id="Fill-10"></path>
            <path d="M291.83,32.837 C291.109,33.357 290.21,33.907 289.13,34.487 C288.05,35.067 287,35.697 285.979,36.377 C284.96,37.057 284.079,37.807 283.34,38.627 C282.6,39.447 282.229,40.377 282.229,41.416 C282.229,42.457 282.59,43.397 283.31,44.237 C284.03,45.077 284.969,45.497 286.13,45.497 C287.17,45.497 288.089,45.377 288.89,45.137 C289.689,44.897 290.43,44.437 291.109,43.757 C291.59,43.317 291.83,42.757 291.83,42.077 L291.83,32.837 Z M302.45,45.497 C302.129,46.217 301.709,46.867 301.189,47.447 C300.67,48.027 300.06,48.467 299.359,48.767 C298.659,49.067 297.89,49.217 297.05,49.217 C295.689,49.217 294.479,48.817 293.42,48.017 C292.359,47.217 291.83,45.817 291.83,43.817 L291.71,43.757 C291.39,44.277 290.96,44.857 290.42,45.497 C289.88,46.137 289.239,46.737 288.5,47.297 C287.759,47.857 286.939,48.307 286.04,48.647 C285.14,48.987 284.149,49.157 283.07,49.157 C282.43,49.157 281.78,49.067 281.12,48.887 C280.46,48.707 279.859,48.387 279.32,47.927 C278.78,47.467 278.339,46.877 278,46.157 C277.659,45.436 277.49,44.557 277.49,43.517 C277.49,42.397 277.939,41.317 278.84,40.277 C279.74,39.237 280.85,38.297 282.17,37.457 C283.49,36.617 284.66,35.897 285.68,35.297 C286.7,34.697 287.59,34.186 288.35,33.767 C289.109,33.347 289.779,32.987 290.359,32.686 C290.939,32.387 291.43,32.117 291.83,31.877 L291.83,25.697 C291.83,25.617 291.76,25.427 291.62,25.127 C291.479,24.827 291.239,24.518 290.899,24.197 C290.56,23.877 290.09,23.587 289.49,23.327 C288.89,23.067 288.109,22.936 287.149,22.936 C286.51,22.936 285.88,23.047 285.26,23.267 C284.64,23.487 284.09,23.768 283.609,24.107 C283.13,24.447 282.749,24.788 282.47,25.127 C282.189,25.467 282.05,25.757 282.05,25.997 L282.05,28.697 C282.05,29.257 281.759,29.757 281.18,30.197 C280.6,30.637 279.97,30.857 279.29,30.857 C278.649,30.857 278.1,30.627 277.64,30.166 C277.18,29.707 276.95,29.177 276.95,28.577 C276.95,28.097 277.07,27.657 277.31,27.257 C277.55,26.857 277.85,26.498 278.21,26.177 C278.57,25.857 278.96,25.577 279.38,25.337 C279.8,25.097 280.169,24.877 280.49,24.677 C281.529,24.077 282.59,23.498 283.67,22.936 C284.75,22.377 285.779,21.897 286.76,21.497 C287.739,21.097 288.64,20.777 289.46,20.537 C290.279,20.297 290.949,20.177 291.47,20.177 C292.51,20.177 293.489,20.447 294.41,20.987 C295.329,21.527 295.989,22.197 296.39,22.997 C296.549,23.277 296.649,23.768 296.689,24.467 C296.729,25.167 296.75,25.857 296.75,26.537 C296.75,27.977 296.739,29.277 296.72,30.436 C296.699,31.597 296.689,32.717 296.689,33.797 C296.689,34.877 296.68,35.987 296.66,37.127 C296.64,38.267 296.63,39.518 296.63,40.877 C296.63,42.677 296.939,43.867 297.56,44.447 C298.18,45.027 298.89,45.317 299.689,45.317 C300.609,45.317 301.289,45.127 301.729,44.747 C302.17,44.367 302.47,43.877 302.63,43.277 L302.99,43.277 C302.949,44.037 302.77,44.777 302.45,45.497 Z" id="Fill-11"></path>
            <path d="M326.872,30.737 C326.513,29.416 325.964,28.268 325.228,27.287 C324.49,26.307 323.554,25.527 322.419,24.947 C321.282,24.367 319.958,24.077 318.444,24.077 C317.407,24.077 316.481,24.267 315.665,24.647 C314.848,25.027 314.149,25.467 313.572,25.967 C312.995,26.467 312.556,26.978 312.258,27.497 C311.959,28.017 311.81,28.397 311.81,28.637 C311.81,29.437 311.8,30.287 311.779,31.186 C311.759,32.087 311.75,32.877 311.75,33.557 C311.75,35.197 311.75,36.477 311.75,37.397 C311.75,38.317 311.77,39.237 311.81,40.157 C311.89,40.997 312.029,41.867 312.228,42.767 C312.427,43.666 312.766,44.487 313.244,45.227 C313.723,45.967 314.38,46.567 315.217,47.027 C316.053,47.487 317.129,47.717 318.444,47.717 C319.6,47.717 320.715,47.397 321.791,46.757 C322.866,46.117 323.823,45.237 324.66,44.117 C325.496,42.998 326.164,41.657 326.662,40.097 C327.16,38.537 327.41,36.837 327.41,34.997 C327.41,33.477 327.229,32.057 326.872,30.737 Z M331.643,39.497 C330.864,41.416 329.758,43.067 328.322,44.447 C326.886,45.827 325.131,46.907 323.057,47.686 C320.983,48.467 318.649,48.857 316.058,48.857 C315.34,48.857 314.631,48.837 313.934,48.797 C313.235,48.757 312.507,48.657 311.75,48.497 C311.75,49.057 311.759,49.877 311.779,50.957 C311.8,52.037 311.819,53.177 311.84,54.377 C311.859,55.577 311.87,56.756 311.87,57.916 C311.87,59.077 311.87,60.017 311.87,60.737 C311.949,61.097 312.17,61.367 312.529,61.547 C312.89,61.727 313.319,61.866 313.819,61.967 C314.319,62.066 314.84,62.136 315.38,62.177 C315.92,62.216 316.39,62.256 316.79,62.297 L316.79,62.957 L301.97,62.957 L301.97,62.297 C302.369,62.256 302.849,62.186 303.41,62.087 C303.97,61.986 304.499,61.856 305,61.697 C305.499,61.537 305.919,61.337 306.26,61.097 C306.599,60.857 306.77,60.577 306.77,60.257 L306.77,27.017 C306.77,26.697 306.739,26.457 306.68,26.297 C306.62,26.137 306.449,25.957 306.17,25.757 C305.81,25.557 305.229,25.268 304.43,24.887 C303.629,24.507 302.989,24.217 302.51,24.017 L302.51,23.657 L311.39,20.177 L311.75,20.177 L311.75,26.897 L311.81,27.017 C312.367,26.257 312.985,25.478 313.664,24.677 C314.342,23.877 315.1,23.147 315.938,22.487 C316.774,21.827 317.683,21.277 318.66,20.837 C319.637,20.397 320.704,20.177 321.86,20.177 C323.735,20.177 325.36,20.557 326.736,21.317 C328.113,22.077 329.249,23.077 330.147,24.317 C331.044,25.557 331.713,26.957 332.151,28.517 C332.591,30.077 332.81,31.657 332.81,33.257 C332.81,35.498 332.421,37.577 331.643,39.497 Z" id="Fill-12"></path>
            <path d="M352.04,22.787 C351.02,21.728 349.649,21.197 347.93,21.197 C346.81,21.197 345.8,21.527 344.899,22.186 C344,22.847 343.22,23.617 342.56,24.497 C341.899,25.377 341.39,26.267 341.029,27.166 C340.67,28.067 340.449,28.757 340.37,29.237 C341.289,29.237 342.109,29.237 342.83,29.237 C343.55,29.237 344.26,29.228 344.96,29.207 C345.659,29.187 346.39,29.167 347.149,29.147 C347.909,29.127 348.749,29.117 349.67,29.117 C350.27,29.117 350.829,29.097 351.35,29.057 C351.869,29.018 352.329,28.917 352.729,28.757 C353.009,28.437 353.219,28.137 353.359,27.857 C353.499,27.577 353.569,27.157 353.569,26.597 C353.569,25.117 353.06,23.847 352.04,22.787 Z M358.91,43.007 C358.35,44.107 357.59,45.117 356.63,46.037 C355.67,46.957 354.52,47.717 353.18,48.317 C351.839,48.916 350.35,49.217 348.71,49.217 C346.67,49.217 344.81,48.837 343.13,48.077 C341.45,47.317 340.02,46.247 338.84,44.867 C337.659,43.487 336.749,41.867 336.109,40.007 C335.47,38.147 335.149,36.177 335.149,34.097 C335.149,32.416 335.45,30.747 336.05,29.087 C336.649,27.427 337.499,25.936 338.6,24.617 C339.699,23.297 341.039,22.227 342.62,21.407 C344.199,20.587 345.95,20.177 347.87,20.177 C349.43,20.177 350.899,20.377 352.279,20.777 C353.66,21.177 354.859,21.788 355.88,22.607 C356.899,23.427 357.729,24.457 358.37,25.697 C359.009,26.937 359.39,28.397 359.51,30.077 L340.25,30.077 C340.25,30.397 340.229,30.767 340.189,31.186 C340.149,31.607 340.13,32.037 340.13,32.477 C340.13,34.157 340.37,35.768 340.85,37.307 C341.33,38.847 342.029,40.207 342.95,41.387 C343.869,42.567 345.029,43.497 346.43,44.177 C347.829,44.857 349.449,45.197 351.29,45.197 C353.289,45.197 355.04,44.686 356.54,43.666 C358.04,42.647 359.029,41.397 359.51,39.916 L359.99,40.037 C359.829,40.917 359.47,41.907 358.91,43.007 Z" id="Fill-13"></path>
            <path d="M381.35,25.547 C380.829,26.127 380.229,26.416 379.55,26.416 C378.909,26.416 378.399,26.307 378.02,26.087 C377.639,25.867 377.309,25.617 377.029,25.337 C376.749,25.057 376.449,24.807 376.129,24.587 C375.809,24.367 375.369,24.257 374.81,24.257 C374.329,24.257 373.858,24.427 373.399,24.767 C372.939,25.107 372.509,25.538 372.109,26.057 C371.709,26.577 371.349,27.166 371.029,27.827 C370.709,28.487 370.43,29.117 370.189,29.717 L370.189,46.997 C370.31,47.357 370.569,47.637 370.97,47.837 C371.369,48.038 371.818,48.177 372.319,48.257 C372.819,48.337 373.34,48.387 373.879,48.407 C374.419,48.427 374.889,48.477 375.289,48.557 L375.289,49.157 L361.85,49.157 L361.85,48.557 C362.77,48.477 363.56,48.297 364.22,48.017 C364.879,47.737 365.209,47.277 365.209,46.637 L365.209,26.357 C365.209,26.037 365.18,25.797 365.119,25.637 C365.06,25.478 364.889,25.297 364.609,25.097 C364.249,24.897 363.829,24.647 363.35,24.347 C362.869,24.047 362.39,23.797 361.909,23.597 L361.909,23.237 L369.77,20.177 L370.129,20.177 L370.01,28.517 L370.129,28.517 C370.329,28.037 370.648,27.337 371.09,26.416 C371.529,25.497 372.089,24.567 372.77,23.627 C373.449,22.687 374.27,21.877 375.229,21.197 C376.189,20.517 377.289,20.177 378.529,20.177 C379.528,20.177 380.379,20.477 381.079,21.077 C381.778,21.677 382.129,22.437 382.129,23.357 C382.129,24.237 381.869,24.967 381.35,25.547" id="Fill-14"></path>
            <path d="M398.51,6.857 C398.188,6.697 397.869,6.607 397.549,6.587 C397.229,6.567 396.869,6.557 396.47,6.557 C395.949,6.557 395.608,6.577 395.449,6.617 C395.409,6.737 395.379,6.907 395.359,7.127 C395.339,7.347 395.329,7.677 395.329,8.117 L395.329,13.157 C395.889,13.157 396.379,13.147 396.799,13.127 C397.22,13.107 397.648,13.037 398.089,12.916 C398.969,12.597 399.568,12.166 399.89,11.627 C400.209,11.087 400.369,10.478 400.369,9.797 C400.369,8.437 399.749,7.457 398.51,6.857 Z M407.659,9.017 C407.039,7.617 406.198,6.387 405.14,5.327 C404.079,4.268 402.849,3.427 401.449,2.807 C400.049,2.187 398.549,1.877 396.949,1.877 C395.349,1.877 393.849,2.187 392.449,2.807 C391.049,3.427 389.829,4.268 388.789,5.327 C387.749,6.387 386.919,7.617 386.299,9.017 C385.679,10.417 385.369,11.917 385.369,13.517 C385.369,15.117 385.679,16.627 386.299,18.047 C386.919,19.467 387.749,20.697 388.789,21.737 C389.829,22.777 391.049,23.607 392.449,24.227 C393.849,24.847 395.349,25.157 396.949,25.157 C398.869,25.157 400.64,24.747 402.26,23.927 C403.879,23.107 405.229,21.998 406.31,20.597 L401.93,20.597 C401.81,20.437 401.729,20.317 401.689,20.237 C401.649,20.157 401.6,20.077 401.539,19.997 C401.479,19.917 401.39,19.787 401.27,19.607 C401.149,19.427 400.989,19.177 400.789,18.857 C400.31,18.137 399.898,17.517 399.56,16.997 C399.219,16.478 398.729,15.857 398.089,15.137 C397.85,14.857 397.569,14.597 397.249,14.357 C396.929,14.117 396.629,13.957 396.35,13.877 C396.109,13.797 395.93,13.767 395.81,13.787 C395.689,13.807 395.529,13.817 395.329,13.817 L395.329,17.297 C395.329,17.737 395.339,18.127 395.359,18.467 C395.379,18.807 395.449,19.077 395.569,19.277 C395.689,19.478 395.908,19.647 396.229,19.787 C396.549,19.927 396.988,19.997 397.549,19.997 L397.549,20.597 L390.529,20.597 L390.529,19.997 C390.849,19.997 391.189,19.947 391.549,19.847 C391.909,19.748 392.188,19.597 392.39,19.397 C392.549,19.197 392.659,18.867 392.72,18.407 C392.779,17.947 392.81,17.498 392.81,17.057 L392.81,9.497 C392.81,9.057 392.789,8.597 392.749,8.117 C392.709,7.637 392.589,7.297 392.39,7.097 C392.029,6.777 391.449,6.557 390.649,6.436 L390.649,5.957 C390.809,5.957 391.139,5.947 391.64,5.927 C392.139,5.907 392.689,5.897 393.289,5.897 C393.89,5.897 394.489,5.887 395.089,5.867 C395.689,5.847 396.169,5.837 396.529,5.837 C397.489,5.837 398.329,5.877 399.049,5.957 C399.77,6.038 400.43,6.217 401.029,6.497 C402.429,7.137 403.129,8.277 403.129,9.916 C403.129,10.877 402.778,11.667 402.079,12.287 C401.379,12.907 400.569,13.317 399.649,13.517 L399.649,13.577 C400.089,13.977 400.528,14.437 400.97,14.957 C401.369,15.436 401.779,15.967 402.199,16.547 C402.619,17.127 402.988,17.657 403.31,18.137 C403.869,18.777 404.409,19.237 404.93,19.517 C405.448,19.797 406.029,19.977 406.669,20.057 C407.949,18.177 408.589,15.998 408.589,13.517 C408.589,11.917 408.279,10.417 407.659,9.017 Z M408.739,18.467 C408.079,20.007 407.169,21.357 406.01,22.517 C404.849,23.677 403.489,24.587 401.93,25.247 C400.369,25.907 398.709,26.237 396.949,26.237 C395.188,26.237 393.539,25.907 391.999,25.247 C390.459,24.587 389.109,23.677 387.949,22.517 C386.789,21.357 385.869,20.007 385.189,18.467 C384.509,16.927 384.169,15.277 384.169,13.517 C384.169,11.757 384.509,10.097 385.189,8.537 C385.869,6.977 386.789,5.627 387.949,4.487 C389.109,3.347 390.459,2.447 391.999,1.787 C393.539,1.127 395.188,0.797 396.949,0.797 C398.709,0.797 400.369,1.127 401.93,1.787 C403.489,2.447 404.849,3.347 406.01,4.487 C407.169,5.627 408.079,6.977 408.739,8.537 C409.399,10.097 409.729,11.757 409.729,13.517 C409.729,15.277 409.399,16.927 408.739,18.467 Z" id="Fill-15"></path>
        </g>
    </g>
</svg>